<!DOCTYPE svg PUBLIC "-//W3C//DTD SVG 1.1//EN" "http://www.w3.org/Graphics/SVG/1.1/DTD/svg11.dtd">
<!-- Uploaded to: SVG Repo, www.svgrepo.com, Transformed by: SVG Repo Mixer Tools -->
<svg width="800px" height="800px" viewBox="0 0 192 192" xmlns="http://www.w3.org/2000/svg" fill="none">
<g id="SVGRepo_bgCarrier" stroke-width="0"/>
<g id="SVGRepo_tracerCarrier" stroke-linecap="round" stroke-linejoin="round"/>
<g id="SVGRepo_iconCarrier">
<rect width="22" height="64" x="106" y="22" stroke="#000000" stroke-width="10.56" rx="11"/>
<rect width="22" height="64" x="64" y="106" stroke="#000000" stroke-width="10.56" rx="11"/>
<rect width="22" height="64" x="170" y="106" stroke="#000000" stroke-width="10.56" rx="11" transform="rotate(90 170 106)"/>
<rect width="22" height="64" x="86" y="64" stroke="#000000" stroke-width="10.56" rx="11" transform="rotate(90 86 64)"/>
<path stroke="#000000" stroke-linejoin="round" stroke-width="10.56" d="M75 44c-6.075 0-11-4.925-11-11s4.925-11 11-11 11 4.925 11 11v11H75Zm42 104c6.075 0 11 4.925 11 11s-4.925 11-11 11-11-4.925-11-11v-11h11Zm31-73c0-6.075 4.925-11 11-11s11 4.925 11 11-4.925 11-11 11h-11V75ZM44 117c0 6.075-4.925 11-11 11s-11-4.925-11-11 4.925-11 11-11h11v11Z"/>
</g>
</svg>